<svg width="340" height="70" viewBox="0 0 340 70" fill="none" xmlns="http://www.w3.org/2000/svg">
<path d="M232.339 12.9814C233.746 12.9594 235.148 13.1447 236.499 13.5304C236.692 13.5855 236.884 13.6446 237.075 13.7079L237.329 13.8222V13.7079H237.337V10.9814C237.337 10.1639 237.16 9.42886 236.838 8.78729C235.899 6.89776 233.707 5.81396 231.071 5.81396C221.537 5.81396 218.318 13.2059 218.318 17.8141V45.2061C218.316 45.8475 218.443 46.4828 218.689 47.0751C218.733 47.1798 218.78 47.2829 218.831 47.3841C219.068 47.8612 219.383 48.2966 219.763 48.6723C220.22 49.1236 220.762 49.4797 221.358 49.7199C221.954 49.9601 222.592 50.0796 223.234 50.0715H226.506V28.255H230.003C232.744 28.255 235.84 26.557 235.84 23.6468V21.4059L226.498 21.4059V18.4835C226.498 14.6763 228.412 13.3191 231.128 13.0393C231.517 12.9993 231.921 12.9814 232.339 12.9814Z" fill="url(#paint0_linear_1253_3735)"/>
<path d="M176.432 49.9612V31.4346C176.432 22.41 170.227 17.3977 162.722 17.3977C152.795 17.3977 148.362 24.2957 148.362 31.0223V44.7735C148.362 47.7245 150.55 49.9612 153.92 49.9612H156.284V31.5489C156.284 27.01 158.648 24.4141 162.076 24.4141C166.154 24.4141 168.518 26.7733 168.518 32.1366V44.7735C168.518 47.7204 170.763 49.9612 174.309 49.9612H176.432Z" fill="url(#paint1_linear_1253_3735)"/>
<path d="M127.363 30.8509V49.9613H125.384C121.073 49.9613 119.355 47.9572 119.355 44.1857V31.9163C119.355 26.6713 117.003 24.4264 113.519 24.4264C110.332 24.4264 108.144 26.6713 108.144 31.0346V49.9613H106.017C102.533 49.9613 100.226 47.9572 100.226 44.1857V31.9163C100.226 26.6713 97.8045 24.4264 94.3198 24.4264C91.2482 24.4264 88.9455 26.8468 88.9455 31.2101V49.9613H86.8227C83.5793 49.9613 81.0966 47.8388 81.0966 44.1817V31.855C81.0966 23.1815 85.6448 17.4019 95.2769 17.4019C99.416 17.4019 102.664 19.2917 104.97 22.357C105.957 20.8297 107.313 19.5751 108.913 18.709C110.514 17.843 112.307 17.3934 114.128 17.4019C121.457 17.4019 127.363 21.8264 127.363 30.8509Z" fill="url(#paint2_linear_1253_3735)"/>
<path d="M268.168 35.5122C268.168 44.7735 261.963 49.9613 254.106 49.9613C244.842 49.9613 240.171 44.9 240.2 34.9897V23.0794C240.2 19.3651 242.134 17.4182 246.744 17.4182H248.167V35.2877C248.167 40.7122 250.47 42.9531 253.722 42.9531C257.325 42.9531 260.159 40.5816 260.159 34.7571V23.0794C260.159 19.3651 262.155 17.4182 266.703 17.4182H268.168V35.5122Z" fill="url(#paint3_linear_1253_3735)"/>
<path d="M142.038 18.4835H139.814C136.259 18.4835 134.145 20.3692 134.145 24.3815L134.12 44.7612C134.12 47.7123 136.366 49.949 139.912 49.949H142.038V18.4835Z" fill="url(#paint4_linear_1253_3735)"/>
<path d="M315.616 64.6512C325.899 64.6512 331.216 57.5123 331.216 49.549C331.216 49.2266 331.249 17.4182 331.249 17.4182H329.772C325.236 17.4182 323.228 19.3651 323.228 23.0794V34.7571C323.228 40.5816 320.365 42.9735 316.758 42.9531C313.506 42.9531 311.203 40.7122 311.203 35.2877V17.4182H309.784C305.191 17.4182 303.24 19.3651 303.24 23.0794V34.9938C303.24 44.9041 307.915 49.9654 317.187 49.9654C319.293 49.9859 321.381 49.5761 323.322 48.7613C323.363 49.2429 323.363 49.7939 323.363 50.2021C323.363 54.8021 320.758 57.5164 315.032 57.5164C310.479 57.5164 306.815 56.1001 304.925 54.096L304.573 53.6593V57.6919C304.573 61.4675 309.072 64.6512 315.616 64.6512Z" fill="url(#paint5_linear_1253_3735)"/>
<path d="M142.726 10.5079C142.709 9.28225 142.21 8.11231 141.336 7.25135C140.462 6.39039 139.283 5.90771 138.055 5.90782C137.141 5.909 136.249 6.1801 135.489 6.68692C134.73 7.19374 134.138 7.9136 133.788 8.75572C133.438 9.59783 133.346 10.5245 133.523 11.4189C133.7 12.3133 134.138 13.1353 134.783 13.7814C135.433 14.4261 136.26 14.8648 137.159 15.0425C138.058 15.2202 138.99 15.129 139.837 14.7802C140.685 14.4314 141.41 13.8407 141.923 13.0821C142.435 12.3235 142.72 11.43 142.726 10.5152V10.5079Z" fill="url(#paint6_linear_1253_3735)"/>
<path fill-rule="evenodd" clip-rule="evenodd" d="M209.173 5.90782H211.426L211.43 49.9449H209.304C207.316 49.9449 205.753 49.2469 204.747 48.1163C202.51 49.3 199.663 49.9449 196.125 49.9449C187.716 49.9449 181.283 42.6428 181.283 33.9121C181.283 23.4753 186.367 16.6916 195.643 16.6916C198.759 16.6916 202.158 18.8304 203.471 21.5079L203.508 21.6018V11.8058C203.504 7.79355 205.618 5.90782 209.173 5.90782ZM189.078 32.3978C189.078 39.006 192.514 43.3081 197.066 43.3081C201.504 43.3081 203.451 40.006 203.447 34.2182C203.447 26.259 199.958 23.3692 195.708 23.3692C191.675 23.3733 189.078 27.2631 189.078 32.3978Z" fill="url(#paint7_linear_1253_3735)"/>
<path d="M280.646 5.90782H282.871V49.9612H280.745C277.203 49.9612 274.953 47.7245 274.953 44.7734L274.978 11.8058C274.965 7.79355 277.092 5.90782 280.646 5.90782Z" fill="url(#paint8_linear_1253_3735)"/>
<path d="M297.608 5.90782H295.387C291.833 5.90782 289.714 7.79355 289.714 11.8058L289.694 44.7734C289.694 47.7245 291.939 49.9612 295.485 49.9612H297.608V5.90782Z" fill="url(#paint9_linear_1253_3735)"/>
<path style="mix-blend-mode:multiply" d="M28.187 18.2703C29.127 21.4412 32.1368 25.2252 36.2598 25.2252C40.3829 25.2252 43.405 21.4412 44.3492 18.2703C46.052 12.5253 42.8154 4.87209 36.2598 0C29.7166 4.89239 26.48 12.5253 28.187 18.2703Z" fill="url(#paint10_linear_1253_3735)"/>
<path style="mix-blend-mode:multiply" opacity="0.9" d="M19.8764 26.2051C22.5046 28.219 27.1683 29.5148 30.5039 27.0963C33.8395 24.6779 34.0558 19.8438 32.952 16.7246C30.9458 11.078 23.8197 6.78492 15.6464 6.6887C13.2344 14.4849 15.1117 22.5585 19.8764 26.2051Z" fill="url(#paint11_linear_1253_3735)"/>
<path style="mix-blend-mode:multiply" opacity="0.8" d="M17.8266 37.4992C21.139 37.5869 25.6753 35.8995 26.9494 31.9864C28.2235 28.0732 25.5512 24.0355 22.821 22.1595C17.8722 18.7681 9.57839 19.4749 2.90944 24.1913C5.54997 31.9134 11.8241 37.3439 17.8266 37.4992Z" fill="url(#paint12_linear_1253_3735)"/>
<path style="mix-blend-mode:multiply" opacity="0.7" d="M22.8205 47.8387C25.5519 45.9666 28.228 41.9407 26.9539 38.0275C25.6798 34.1143 21.1398 32.4153 17.8261 32.499C11.8248 32.6582 5.53134 38.095 2.91398 45.8225C9.59846 50.5209 17.8729 51.234 22.8205 47.8387Z" fill="url(#paint13_linear_1253_3735)"/>
<path style="mix-blend-mode:multiply" opacity="0.6" d="M32.9505 53.2742C34.0576 50.1575 33.8514 45.3307 30.5158 42.9122C27.1802 40.4937 22.5064 41.7823 19.8749 43.7938C15.1136 47.4428 13.2243 55.5329 15.6583 63.3199C23.8334 63.2 30.9476 58.9233 32.9505 53.2742Z" fill="url(#paint14_linear_1253_3735)"/>
<path style="mix-blend-mode:multiply" opacity="0.5" d="M44.3473 51.7297C43.4073 48.5588 40.3975 44.7748 36.2744 44.7748C32.1514 44.7748 29.1292 48.5588 28.1851 51.7297C26.4823 57.4747 29.7188 65.1279 36.2744 70C42.8177 65.1076 46.0542 57.4747 44.3473 51.7297Z" fill="url(#paint15_linear_1253_3735)"/>
<path style="mix-blend-mode:multiply" opacity="0.4" d="M52.6578 43.7949C50.0296 41.781 45.3659 40.4852 42.0303 42.9037C38.6947 45.3221 38.4785 50.1562 39.5823 53.2754C41.5884 58.922 48.7146 63.2151 56.8878 63.3113C59.2998 55.5151 57.4225 47.4415 52.6578 43.7949Z" fill="url(#paint16_linear_1253_3735)"/>
<path style="mix-blend-mode:multiply" opacity="0.3" d="M54.7076 32.5008C51.3952 32.4131 46.8589 34.1005 45.5848 38.0136C44.3108 41.9268 46.983 45.9645 49.7132 47.8405C54.6621 51.2319 62.9558 50.5251 69.6248 45.8087C66.9843 38.0866 60.7101 32.6561 54.7076 32.5008Z" fill="url(#paint17_linear_1253_3735)"/>
<path style="mix-blend-mode:multiply" opacity="0.2" d="M49.7138 22.1613C46.9824 24.0334 44.3063 28.0593 45.5804 31.9725C46.8544 35.8857 51.3945 37.5847 54.7082 37.501C60.7095 37.3418 67.0029 31.905 69.6203 24.1775C62.9358 19.4791 54.6614 18.7659 49.7138 22.1613Z" fill="url(#paint18_linear_1253_3735)"/>
<path style="mix-blend-mode:multiply" opacity="0.1" d="M39.5838 16.7257C38.4767 19.8425 38.6829 24.6693 42.0185 27.0877C45.3541 29.5062 50.0279 28.2177 52.6594 26.2062C57.4207 22.5572 59.31 14.4671 56.876 6.68011C48.7009 6.8 41.5867 11.0767 39.5838 16.7257Z" fill="url(#paint19_linear_1253_3735)"/>
<path d="M336.13 7.14937L337.46 10H337.867L339.197 7.14937V10H339.964V5.81396H339.029L337.663 8.88525L336.297 5.81396H335.363V10H336.13V7.14937Z" fill="#4BAAFF"/>
<path d="M332.487 6.45098V10H333.254V6.45098H334.596V5.81396H331.145V6.45098H332.487Z" fill="#4BAAFF"/>
<defs>
<linearGradient id="paint0_linear_1253_3735" x1="167.973" y1="72.2865" x2="288.756" y2="-7.79031" gradientUnits="userSpaceOnUse">
<stop stop-color="#7D4BFF"/>
<stop offset="1" stop-color="#4BAAFF"/>
</linearGradient>
<linearGradient id="paint1_linear_1253_3735" x1="167.973" y1="72.2865" x2="288.756" y2="-7.79031" gradientUnits="userSpaceOnUse">
<stop stop-color="#7D4BFF"/>
<stop offset="1" stop-color="#4BAAFF"/>
</linearGradient>
<linearGradient id="paint2_linear_1253_3735" x1="167.973" y1="72.2865" x2="288.756" y2="-7.79031" gradientUnits="userSpaceOnUse">
<stop stop-color="#7D4BFF"/>
<stop offset="1" stop-color="#4BAAFF"/>
</linearGradient>
<linearGradient id="paint3_linear_1253_3735" x1="167.973" y1="72.2865" x2="288.756" y2="-7.79031" gradientUnits="userSpaceOnUse">
<stop stop-color="#7D4BFF"/>
<stop offset="1" stop-color="#4BAAFF"/>
</linearGradient>
<linearGradient id="paint4_linear_1253_3735" x1="167.973" y1="72.2865" x2="288.756" y2="-7.79031" gradientUnits="userSpaceOnUse">
<stop stop-color="#7D4BFF"/>
<stop offset="1" stop-color="#4BAAFF"/>
</linearGradient>
<linearGradient id="paint5_linear_1253_3735" x1="167.973" y1="72.2865" x2="288.756" y2="-7.79031" gradientUnits="userSpaceOnUse">
<stop stop-color="#7D4BFF"/>
<stop offset="1" stop-color="#4BAAFF"/>
</linearGradient>
<linearGradient id="paint6_linear_1253_3735" x1="167.973" y1="72.2865" x2="288.756" y2="-7.79031" gradientUnits="userSpaceOnUse">
<stop stop-color="#7D4BFF"/>
<stop offset="1" stop-color="#4BAAFF"/>
</linearGradient>
<linearGradient id="paint7_linear_1253_3735" x1="167.973" y1="72.2865" x2="288.756" y2="-7.79031" gradientUnits="userSpaceOnUse">
<stop stop-color="#7D4BFF"/>
<stop offset="1" stop-color="#4BAAFF"/>
</linearGradient>
<linearGradient id="paint8_linear_1253_3735" x1="167.973" y1="72.2865" x2="288.756" y2="-7.79031" gradientUnits="userSpaceOnUse">
<stop stop-color="#7D4BFF"/>
<stop offset="1" stop-color="#4BAAFF"/>
</linearGradient>
<linearGradient id="paint9_linear_1253_3735" x1="167.973" y1="72.2865" x2="288.756" y2="-7.79031" gradientUnits="userSpaceOnUse">
<stop stop-color="#7D4BFF"/>
<stop offset="1" stop-color="#4BAAFF"/>
</linearGradient>
<linearGradient id="paint10_linear_1253_3735" x1="28.7005" y1="19.1605" x2="44.7674" y2="10.0431" gradientUnits="userSpaceOnUse">
<stop stop-color="#964BFF"/>
<stop offset="1" stop-color="#CCAAFF"/>
</linearGradient>
<linearGradient id="paint11_linear_1253_3735" x1="15.1487" y1="20.2046" x2="29.9331" y2="11.791" gradientUnits="userSpaceOnUse">
<stop stop-color="#964BFF"/>
<stop offset="1" stop-color="#ADAAFF"/>
</linearGradient>
<linearGradient id="paint12_linear_1253_3735" x1="6.81351" y1="32.5642" x2="24.6563" y2="23.1416" gradientUnits="userSpaceOnUse">
<stop stop-color="#964BFF"/>
<stop offset="1" stop-color="#78AAFF"/>
</linearGradient>
<linearGradient id="paint13_linear_1253_3735" x1="2.95764" y1="46.5272" x2="24.8983" y2="34.0375" gradientUnits="userSpaceOnUse">
<stop stop-color="#7D4BFF"/>
<stop offset="1" stop-color="#4BAAFF"/>
</linearGradient>
<linearGradient id="paint14_linear_1253_3735" x1="33.856" y1="48.4281" x2="13.38" y2="60.0773" gradientUnits="userSpaceOnUse">
<stop stop-color="#4BAAFF"/>
<stop offset="1" stop-color="#644BFF"/>
</linearGradient>
<linearGradient id="paint15_linear_1253_3735" x1="44.1463" y1="51.2823" x2="27.9518" y2="60.1671" gradientUnits="userSpaceOnUse">
<stop stop-color="#4BAAFF"/>
<stop offset="1" stop-color="#004BFF"/>
</linearGradient>
<linearGradient id="paint16_linear_1253_3735" x1="48.3192" y1="41.438" x2="53.0342" y2="64.4838" gradientUnits="userSpaceOnUse">
<stop stop-color="#4BAAFF"/>
<stop offset="1" stop-color="#644BFF"/>
</linearGradient>
<linearGradient id="paint17_linear_1253_3735" x1="70.0045" y1="45.2129" x2="44.9041" y2="42.3917" gradientUnits="userSpaceOnUse">
<stop stop-color="#7D4BFF"/>
<stop offset="1" stop-color="#4BAAFF"/>
</linearGradient>
<linearGradient id="paint18_linear_1253_3735" x1="61.5303" y1="19.6937" x2="52.6437" y2="37.7824" gradientUnits="userSpaceOnUse">
<stop stop-color="#964BFF"/>
<stop offset="1" stop-color="#78AAFF"/>
</linearGradient>
<linearGradient id="paint19_linear_1253_3735" x1="43.8414" y1="10.3844" x2="56.3845" y2="21.8642" gradientUnits="userSpaceOnUse">
<stop stop-color="#964BFF"/>
<stop offset="1" stop-color="#ADAAFF"/>
</linearGradient>
</defs>
</svg>
